Coordinates
version=1
nRows=19
nColumns=24
inDegrees=yes

Units are S.I. units (second, meters, Newtons, ...)
Angles are in degrees.

endheader
time	pelvis_tilt	pelvis_list	pelvis_rotation	pelvis_tx	pelvis_ty	pelvis_tz	hip_flexion_r	hip_adduction_r	hip_rotation_r	knee_angle_r	ankle_angle_r	subtalar_angle_r	mtp_angle_r	hip_flexion_l	hip_adduction_l	hip_rotation_l	knee_angle_l	ankle_angle_l	subtalar_angle_l	mtp_angle_l	lumbar_extension	lumbar_bending	lumbar_rotation
      6.90000000	     -7.65148515	     -6.20004067	      3.97953086	     -0.86366394	      0.00075369	     -0.24694763	      9.32804363	     10.41644209	      5.94010312	     -9.11419222	      0.87969772	     -1.60252211	     11.09747375	     26.01473073	     -8.42382912	      0.23308192	    -60.08807345	    -11.63533395	     -6.78702524	     22.58440892	      7.89003172	      5.96561826	      1.64128580
      6.90500000	     -7.60592388	     -5.99175640	      3.72151465	     -0.85888973	      0.00109098	     -0.24633615	      8.73193051	     10.27546607	      6.23775971	     -8.76629566	      1.01866115	     -1.53313115	     11.00918909	     26.42891396	     -8.21166437	     -0.07341496	    -59.39420669	    -10.98043024	     -6.68885968	     22.57221143	      7.73485868	      5.79243067	      2.02207381
      6.91000000	     -7.57489987	     -5.78617982	      3.52307169	     -0.85408909	      0.00134727	     -0.24581277	      8.14285927	     10.11912680	      6.47910006	     -8.39109202	      1.17102706	     -1.49548196	     10.94486649	     26.86167761	     -7.96856150	     -0.31646035	    -58.65323297	    -10.39985707	     -6.62251487	     22.50320007	      7.61291495	      5.60968198	      2.32145552
      6.91500000	     -7.54230813	     -5.59317324	      3.32183481	     -0.84928863	      0.00154779	     -0.24531196	      7.55563836	      9.96935634	      6.70269586	     -8.01452714	      1.31840540	     -1.44600559	     10.91474331	     27.27840378	     -7.73890132	     -0.55046235	    -57.86126867	     -9.85671590	     -6.56287619	     22.40108490	      7.49196437	      5.44244806	      2.61995203
      6.92000000	     -7.57091998	     -5.41469431	      3.17407298	     -0.84450135	      0.00160519	     -0.24489626	      7.04734808	      9.81860455	      6.84263949	     -7.64425189	      1.48203344	     -1.41833401	     10.92903168	     27.76996337	     -7.48429348	     -0.69903615	    -57.02870409	     -9.39799374	     -6.53529949	     22.36795811	      7.44858542	      5.27702930	      2.84751463
      6.92500000	     -7.48304522	     -5.24116439	      2.91138508	     -0.83974407	      0.00175036	     -0.24435817	      6.42440332	      9.69329332	      7.10350888	     -7.30600565	      1.62005107	     -1.34382875	     10.96578056	     28.07623160	     -7.31192707	     -0.97546072	    -56.12463015	     -8.87078927	     -6.50517297	     22.19528606	      7.25254129	      5.14393205	      3.22010896
      6.93000000	     -7.43773239	     -5.07601780	      2.70464511	     -0.83496781	      0.00179019	     -0.24391161	      5.84778812	      9.56160201	      7.31092933	     -6.95737886	      1.76148918	     -1.31722825	     11.01269978	     28.43168360	     -7.10883277	     -1.16789903	    -55.18342397	     -8.40472407	     -6.47560419	     21.98066368	      7.11881346	      5.00645783	      3.52037017
      6.93500000	     -7.40622153	     -4.91710841	      2.48209569	     -0.83020795	      0.00176472	     -0.24348606	      5.30386675	      9.43298415	      7.51996144	     -6.63844750	      1.90862806	     -1.29582332	     11.07351134	     28.78207626	     -6.91620418	     -1.35369149	    -54.19194515	     -7.96146426	     -6.44913684	     21.75679748	      6.99652540	      4.88124503	      3.82993825
      6.94000000	     -7.36793006	     -4.77162568	      2.24772427	     -0.82544389	      0.00170423	     -0.24306557	      4.76187230	      9.31800986	      7.73826090	     -6.33518605	      2.04985170	     -1.28779257	     11.13473224	     29.10456011	     -6.74522359	     -1.53284976	    -53.15139383	     -7.54915007	     -6.42788178	     21.48475355	      6.86939182	      4.78159774	      4.15544418
      6.94500000	     -7.30050881	     -4.63363160	      2.01009890	     -0.82070055	      0.00162650	     -0.24263685	      4.19658294	      9.21285227	      7.96577477	     -6.04032746	      2.16926317	     -1.33550167	     11.18627230	     29.37991517	     -6.58752163	     -1.69811111	    -52.07501920	     -7.13436087	     -6.38374997	     21.05495986	      6.70547056	      4.68115636	      4.53983497
      6.95000000	     -7.29288010	     -4.50102684	      1.76018245	     -0.81592539	      0.00144190	     -0.24221180	      3.71127234	      9.10869624	      8.22582472	     -5.78454900	      2.32968105	     -1.36190815	     11.23295396	     29.69493734	     -6.44535709	     -1.86663498	    -50.94071942	     -6.76620186	     -6.35357580	     20.72797464	      6.61604344	      4.58321252	      4.85308595
      6.95500000	     -7.27296832	     -4.36676467	      1.51100680	     -0.81117511	      0.00123898	     -0.24182716	      3.22964890	      9.00112540	      8.49275530	     -5.55715813	      2.48240602	     -1.43481866	     11.24746341	     29.97192934	     -6.29857133	     -2.01103559	    -49.75235278	     -6.41662836	     -6.32073126	     20.35097320	      6.50714638	      4.49058669	      5.19357671
      6.96000000	     -7.23327240	     -4.24487811	      1.24138382	     -0.80647875	      0.00104315	     -0.24144576	      2.74864825	      8.90893545	      8.79798120	     -5.36697554	      2.59416021	     -1.55660893	     11.20926432	     30.20228314	     -6.17267597	     -2.13861849	    -48.51690943	     -6.06598888	     -6.26677901	     19.83919178	      6.36450114	      4.41558700	      5.58129663
      6.96500000	     -7.21845808	     -4.11819804	      0.99049939	     -0.80175311	      0.00075308	     -0.24107054	      2.30293129	      8.81263070	      9.10442296	     -5.19641208	      2.74415442	     -1.74534728	     11.13278270	     30.44291938	     -6.04360678	     -2.25403540	    -47.24654780	     -5.70640395	     -6.18110206	     19.27151428	      6.25232944	      4.32882146	      5.94913068
      6.97000000	     -7.24212412	     -3.99837698	      0.73429464	     -0.79701326	      0.00042598	     -0.24074420	      1.91364094	      8.71458765	      9.42847764	     -5.05758414	      2.89328361	     -1.87569979	     11.06111978	     30.69530009	     -5.92842133	     -2.36584778	    -45.90995815	     -5.43272477	     -6.11465303	     18.80929924	      6.19048052	      4.25489962	      6.27962923
      6.97500000	     -7.23543029	     -3.87510810	      0.47455288	     -0.79230862	      0.00006834	     -0.24040607	      1.51075567	      8.62106955	      9.77861599	     -4.95437529	      3.05233898	     -2.12428154	     10.91444922	     30.88965768	     -5.81669402	     -2.46860458	    -44.53501706	     -5.11115642	     -6.02712453	     18.20058409	      6.08163973	      4.17378905	      6.64861807
      6.98000000	     -7.32967683	     -3.75978776	      0.29227183	     -0.78758268	     -0.00042506	     -0.24014262	      1.24434075	      8.52950889	      9.98692542	     -4.89200847	      3.24827458	     -2.26679770	     10.88243872	     31.18433817	     -5.67675885	     -2.46151927	    -43.09662289	     -4.92702276	     -5.92728744	     17.91493176	      6.09972566	      4.07386543	      6.87166167
      6.98500000	     -7.28736667	     -3.64646488	     -0.03612582	     -0.78288076	     -0.00076686	     -0.23977419	      0.81669961	      8.44375252	     10.48581225	     -4.82532100	      3.36894934	     -2.56284399	     10.63885878	     31.27123899	     -5.63099654	     -2.64592626	    -41.62417185	     -4.63510378	     -5.88617017	     17.10494551	      5.94694934	      4.01989059	      7.34512770
      6.99000000	     -7.32847599	     -3.52068535	     -0.26996456	     -0.77813338	     -0.00126334	     -0.23950968	      0.50110007	      8.34192952	     10.87341231	     -4.80055396	      3.56355195	     -2.86445970	     10.38313537	     31.44244945	     -5.52461053	     -2.72574908	    -40.11755442	     -4.32721170	     -5.74285884	     16.30367312	      5.89988524	      3.92760095	      7.67425381
